<svg width="34" height="34" viewBox="0 0 34 34" fill="none" xmlns="http://www.w3.org/2000/svg">
<path d="M33.0596 11.9133L33.0476 11.8531C33.0395 11.8129 33.0355 11.7767 33.0235 11.7365C33.0154 11.7124 33.0074 11.6924 33.0034 11.6682C32.9913 11.6361 32.9833 11.5999 32.9672 11.5678C32.9592 11.5437 32.9471 11.5236 32.9351 11.4995C32.919 11.4674 32.9029 11.4392 32.8869 11.4071C32.8748 11.387 32.8628 11.3629 32.8467 11.3428C32.8145 11.2946 32.7784 11.2464 32.7422 11.1982C32.7221 11.174 32.698 11.1459 32.6739 11.1218C32.6578 11.1017 32.6378 11.0857 32.6177 11.0696C32.5936 11.0455 32.5654 11.0254 32.5413 11.0053C32.5212 10.9892 32.5011 10.9732 32.477 10.9571C32.469 10.9531 32.461 10.945 32.4529 10.941L17.7677 1.16557C17.5411 1.01424 17.2747 0.933472 17.0023 0.933472C16.7298 0.933472 16.4634 1.01424 16.2369 1.16557L1.54355 10.949C1.53552 10.9531 1.52748 10.9611 1.51945 10.9651C1.49936 10.9812 1.47927 10.9973 1.45516 11.0133C1.42704 11.0334 1.40293 11.0575 1.37882 11.0776C1.35873 11.0937 1.34266 11.1138 1.32257 11.1299C1.29847 11.154 1.27436 11.1781 1.25427 11.2062C1.21409 11.2504 1.18195 11.2986 1.1498 11.3508C1.13775 11.3709 1.12168 11.391 1.10963 11.4151C1.09355 11.4432 1.07748 11.4754 1.06141 11.5075C1.04936 11.5276 1.04132 11.5517 1.02927 11.5758C1.01722 11.608 1.00516 11.6441 0.993108 11.6763C0.985072 11.7004 0.977037 11.7205 0.973019 11.7446C0.964983 11.7807 0.956947 11.8209 0.948912 11.8611L0.936858 11.9214C0.928822 11.9816 0.924805 12.0419 0.924805 12.1022V21.8857C0.924805 21.9459 0.928822 22.0062 0.936858 22.0665L0.948912 22.1267L0.973019 22.2432C0.981055 22.2674 0.985072 22.2874 0.993108 22.3115C1.00516 22.3477 1.01722 22.3799 1.02927 22.412C1.0373 22.4361 1.04936 22.4562 1.06141 22.4803C1.07748 22.5124 1.08954 22.5406 1.10963 22.5727C1.12168 22.5928 1.13373 22.6169 1.1498 22.637C1.16989 22.6651 1.18597 22.6932 1.21007 22.7214L1.25829 22.7816C1.27838 22.8057 1.30248 22.8339 1.32659 22.858C1.34266 22.8781 1.36275 22.8941 1.38284 22.9102C1.40695 22.9343 1.43507 22.9544 1.45918 22.9745C1.47927 22.9906 1.49936 23.0066 1.52347 23.0227C1.5315 23.0267 1.53954 23.0348 1.54757 23.0388L16.2369 32.8223C16.4619 32.9749 16.7311 33.0553 17.0043 33.0553C17.2694 33.0553 17.5386 32.979 17.7717 32.8223L32.461 23.0388C32.469 23.0348 32.477 23.0267 32.4851 23.0227C32.5052 23.0066 32.5252 22.9906 32.5494 22.9745C32.5775 22.9544 32.6016 22.9303 32.6257 22.9102C32.6458 22.8941 32.6619 22.8741 32.6819 22.858C32.7061 22.8339 32.7302 22.8098 32.7502 22.7816L32.7985 22.7214L32.8587 22.637C32.8708 22.6169 32.8869 22.5968 32.8989 22.5727C32.915 22.5406 32.9311 22.5124 32.9471 22.4803C32.9592 22.4602 32.9672 22.4361 32.9793 22.412C32.9913 22.3799 33.0034 22.3437 33.0154 22.3115C33.0235 22.2915 33.0315 22.2674 33.0355 22.2432C33.0476 22.2071 33.0516 22.1669 33.0596 22.1267L33.0717 22.0665C33.0797 22.0062 33.0837 21.9459 33.0837 21.8857V12.0941C33.0717 12.0339 33.0677 11.9736 33.0596 11.9133ZM18.3824 4.89012L29.2065 12.0982L24.373 15.3285L18.3864 11.3267V4.89012H18.3824ZM15.6181 4.89012V11.3267L9.6315 15.3285L4.79802 12.0982L15.6181 4.89012ZM3.68909 14.6776L7.14445 16.9879L3.68909 19.2982V14.6776ZM15.6181 29.0816L4.79802 21.8736L9.6315 18.6432L15.6181 22.645V29.0816ZM17.0003 20.2504L12.1145 16.9879L17.0003 13.7214L21.886 16.9839L17.0003 20.2504ZM18.3824 29.0816V22.645L24.369 18.6432L29.2025 21.8736L18.3824 29.0816ZM30.3114 19.2941L26.8561 16.9839L30.3114 14.6736V19.2941Z" fill="#1B1F24"/>
</svg>
