<svg width="36" height="36" viewBox="0 0 36 36" fill="none" xmlns="http://www.w3.org/2000/svg">
<path d="M11.1697 16.3904H24.9108C24.9268 16.3904 24.9469 16.3904 24.963 16.3864C25.1398 16.3583 25.2563 16.1935 25.2282 16.0167L23.613 6.05246C23.5889 5.89576 23.4523 5.78326 23.2956 5.78326H12.7849C12.6282 5.78326 12.4916 5.89576 12.4674 6.05246L10.8523 16.0167C10.8483 16.0328 10.8482 16.0529 10.8482 16.069C10.8482 16.2458 10.9929 16.3904 11.1697 16.3904ZM14.834 8.51541H21.2424L22.0741 13.6583H13.9983L14.834 8.51541ZM14.9344 19.8739C14.9103 19.7172 14.7737 19.6047 14.617 19.6047H4.10628C3.94959 19.6047 3.81298 19.7172 3.78887 19.8739L2.1737 29.8382C2.16968 29.8542 2.16968 29.8743 2.16968 29.8904C2.16968 30.0672 2.31432 30.2118 2.49111 30.2118H16.2322C16.2483 30.2118 16.2683 30.2118 16.2844 30.2078C16.4612 30.1797 16.5777 30.015 16.5496 29.8382L14.9344 19.8739ZM5.3237 27.4797L6.15539 22.3368H12.5639L13.3956 27.4797H5.3237ZM33.8264 29.8382L32.2112 19.8739C32.1871 19.7172 32.0505 19.6047 31.8938 19.6047H21.3831C21.2264 19.6047 21.0898 19.7172 21.0657 19.8739L19.4505 29.8382C19.4465 29.8542 19.4465 29.8743 19.4465 29.8904C19.4465 30.0672 19.5911 30.2118 19.7679 30.2118H33.509C33.525 30.2118 33.5451 30.2118 33.5612 30.2078C33.734 30.1797 33.8545 30.015 33.8264 29.8382ZM22.6005 27.4797L23.4322 22.3368H29.8407L30.6724 27.4797H22.6005Z" fill="#1B1F24"/>
</svg>
