<svg width="31" height="34" viewBox="0 0 31 34" fill="none" xmlns="http://www.w3.org/2000/svg">
<path d="M15.494 0.0010403C15.4659 0.00129833 15.4379 0.00224309 15.4099 0.00387365C15.2912 0.0122961 15.1742 0.0360259 15.0621 0.0744241C14.9771 0.103737 14.8955 0.141234 14.8184 0.186342L0.655476 8.03955C0.456168 8.1501 0.290668 8.3091 0.175609 8.50055C0.0605494 8.69201 -1.58306e-05 8.90918 3.10377e-09 9.13024C3.10377e-09 9.13874 0.000589961 9.14838 0.000884955 9.15744C0.000589961 9.16736 0.000884955 9.17728 0.000884955 9.18748V24.8711C0.000839889 25.0989 0.065154 25.3225 0.186975 25.518C0.308796 25.7136 0.483559 25.8737 0.692645 25.9813L14.8498 33.832C14.8764 33.8464 14.9029 33.8599 14.9295 33.8726V33.8755C14.9694 33.894 15.0102 33.9104 15.0519 33.9248C15.0519 33.9262 15.0667 33.929 15.0696 33.9304C15.1109 33.9446 15.1522 33.9555 15.195 33.9651C15.2097 33.9666 15.2112 33.9694 15.2186 33.9708C15.2599 33.9793 15.3027 33.9867 15.3454 33.9915C15.3454 33.9922 15.3602 33.9928 15.3661 33.9929C15.4103 33.9972 15.456 34 15.5003 34C15.5445 34 15.5903 33.9972 15.6345 33.9929C15.6345 33.9922 15.6493 33.9916 15.6552 33.9915C15.6979 33.9872 15.7402 33.9803 15.782 33.9708C15.7968 33.9694 15.7982 33.968 15.8056 33.9651C15.8479 33.9555 15.8898 33.9439 15.931 33.9304C15.931 33.929 15.9457 33.9262 15.9487 33.9248C15.9903 33.9104 16.0312 33.894 16.0711 33.8756V33.8728C16.0981 33.86 16.1246 33.8464 16.1508 33.8321L30.3084 25.9815C30.5174 25.8738 30.6922 25.7137 30.814 25.5182C30.9358 25.3226 31.0001 25.0991 31 24.8712V9.17799C31 9.16524 30.9991 9.15362 30.9988 9.14144L30.9993 9.1301C30.9992 8.94816 30.958 8.76839 30.8787 8.60318C30.7993 8.43798 30.6836 8.29126 30.5395 8.17314C30.5248 8.1618 30.5115 8.15019 30.4967 8.139C30.4967 8.13616 30.482 8.13191 30.482 8.12908C30.4317 8.0922 30.3788 8.05882 30.3236 8.0292L16.1686 0.1794C15.9618 0.0600807 15.7246 -0.00198953 15.4833 4.8626e-05L15.494 0.0010403ZM15.5087 3.19182C15.6149 3.19182 15.7215 3.21831 15.817 3.27115L25.4582 8.61769C25.8696 8.84578 25.8696 9.4157 25.4582 9.64379L15.8168 14.9903C15.7231 15.0423 15.6167 15.0697 15.5084 15.0697C15.4001 15.0697 15.2938 15.0423 15.2 14.9903L5.55871 9.64379C5.14749 9.41585 5.14735 8.84578 5.55871 8.61769L15.2003 3.27115C15.294 3.21926 15.4005 3.19191 15.5087 3.19182ZM3.59081 12.3407C3.70213 12.3392 3.81178 12.3668 3.90793 12.4208L13.5306 17.7568C13.6242 17.8087 13.7018 17.8832 13.7559 17.9731C13.8099 18.0629 13.8383 18.1648 13.8383 18.2685V28.9398C13.8383 29.3948 13.3255 29.6793 12.915 29.4516L3.29272 24.1156C3.19917 24.0637 3.12149 23.9891 3.06749 23.8992C3.01348 23.8094 2.98504 23.7075 2.98504 23.6037V12.9325C2.98504 12.5913 3.2734 12.346 3.59081 12.3407ZM27.4262 12.3407C27.7433 12.3464 28.0319 12.5912 28.0319 12.9325V23.6036C28.0319 23.8147 27.9139 24.0099 27.7241 24.1156L18.1016 29.4516C17.6915 29.6791 17.1785 29.3948 17.1785 28.9396V18.2685C17.1785 18.0574 17.2965 17.8624 17.4862 17.7567L27.1086 12.4206C27.2048 12.3667 27.3147 12.3392 27.4262 12.3407Z" fill="#1B1F24"/>
</svg>
