<svg width="26" height="34" viewBox="0 0 26 34" fill="none" xmlns="http://www.w3.org/2000/svg">
<path fill-rule="evenodd" clip-rule="evenodd" d="M15.34 0.88283C15.7054 0.997746 16.0246 1.22624 16.2512 1.53507C16.4778 1.8439 16.6 2.21698 16.6 2.60003V11.6H23.8C24.1292 11.5999 24.4522 11.69 24.7338 11.8607C25.0153 12.0314 25.2447 12.276 25.3969 12.568C25.5491 12.8599 25.6183 13.188 25.597 13.5166C25.5757 13.8452 25.4646 14.1616 25.276 14.4314L12.676 32.4314C12.4567 32.7456 12.1429 32.9816 11.7802 33.1051C11.4175 33.2286 11.0249 33.2332 10.6594 33.1181C10.294 33.003 9.97477 32.7744 9.74826 32.4654C9.52174 32.1564 9.39973 31.7832 9.39997 31.4V22.4H2.19997C1.87072 22.4002 1.54773 22.31 1.26616 22.1393C0.984593 21.9687 0.755228 21.7241 0.603028 21.4321C0.450829 21.1401 0.381625 20.812 0.40295 20.4835C0.424274 20.1549 0.535309 19.8385 0.723971 19.5686L13.324 1.56863C13.5436 1.25505 13.8575 1.01965 14.22 0.896647C14.5826 0.773641 14.9749 0.769432 15.34 0.88463V0.88283Z" fill="#1B1F24"/>
</svg>
