<svg width="20" height="32" viewBox="0 0 20 32" fill="none" xmlns="http://www.w3.org/2000/svg">
<path d="M7.79225 25.7357L16.1115 15.6472H10.0586L11.1605 7.00389L3.68453 17.828H8.91627L7.79225 25.7357ZM6.0029 20.3625H1.45193C0.897659 20.3625 0.494671 20.1199 0.242971 19.6346C-0.00872883 19.1494 0.0263212 18.6706 0.348121 18.1981L11.8788 1.50501C12.0454 1.27426 12.2743 1.10839 12.5653 1.00742C12.8563 0.906466 13.139 0.915604 13.4133 1.03483C13.6877 1.14765 13.9085 1.33624 14.0758 1.60059C14.2431 1.86497 14.3149 2.14079 14.2912 2.42807L12.9364 13.1126H18.5633C19.1591 13.1126 19.5824 13.3795 19.8332 13.9131C20.084 14.4467 20.0184 14.9414 19.6364 15.3972L7.00861 30.6413C6.80446 30.8686 6.56288 31.0196 6.28389 31.0944C6.00488 31.1693 5.7266 31.1341 5.44902 30.9889C5.16507 30.8501 4.9606 30.6583 4.8356 30.4137C4.7106 30.169 4.66508 29.8948 4.69906 29.5913L6.0029 20.3625Z" fill="#1B1F24"/>
</svg>
