<svg width="24" height="29" viewBox="0 0 24 29" fill="none" xmlns="http://www.w3.org/2000/svg">
<path d="M12.0002 26.0248C15.0502 23.2248 17.3127 20.681 18.7877 18.3935C20.2627 16.106 21.0002 14.0748 21.0002 12.2998C21.0002 9.57476 20.1315 7.34351 18.394 5.60601C16.6565 3.86851 14.5252 2.99976 12.0002 2.99976C9.47524 2.99976 7.34399 3.86851 5.60649 5.60601C3.86899 7.34351 3.00024 9.57476 3.00024 12.2998C3.00024 14.0748 3.73774 16.106 5.21274 18.3935C6.68774 20.681 8.95024 23.2248 12.0002 26.0248ZM12.0002 28.9873C11.6502 28.9873 11.3002 28.9248 10.9502 28.7998C10.6002 28.6748 10.2877 28.4873 10.0127 28.2373C8.38774 26.7373 6.95024 25.2748 5.70024 23.8498C4.45024 22.4248 3.40649 21.0435 2.56899 19.706C1.73149 18.3685 1.09399 17.081 0.656494 15.8435C0.218994 14.606 0.000244141 13.4248 0.000244141 12.2998C0.000244141 8.54976 1.20649 5.56226 3.61899 3.33726C6.03149 1.11226 8.82524 -0.000244141 12.0002 -0.000244141C15.1752 -0.000244141 17.969 1.11226 20.3815 3.33726C22.794 5.56226 24.0002 8.54976 24.0002 12.2998C24.0002 13.4248 23.7815 14.606 23.344 15.8435C22.9065 17.081 22.269 18.3685 21.4315 19.706C20.594 21.0435 19.5502 22.4248 18.3002 23.8498C17.0502 25.2748 15.6127 26.7373 13.9877 28.2373C13.7127 28.4873 13.4002 28.6748 13.0502 28.7998C12.7002 28.9248 12.3502 28.9873 12.0002 28.9873Z" fill="#1B1F24"/>
<path d="M16.5002 11.3435C16.5002 13.8288 14.4855 15.8435 12.0002 15.8435C9.51496 15.8435 7.50024 13.8288 7.50024 11.3435C7.50024 8.85822 9.51496 6.84351 12.0002 6.84351C14.4855 6.84351 16.5002 8.85822 16.5002 11.3435Z" fill="#1B1F24"/>
</svg>
