<svg width="36" height="36" viewBox="0 0 36 36" fill="none" xmlns="http://www.w3.org/2000/svg">
<path d="M6.75 5.00007C5.50736 5.00007 4.5 6.00743 4.5 7.25007V28.7501C4.5 29.9927 5.50736 31.0001 6.75 31.0001H14.25C15.4926 31.0001 16.5 29.9927 16.5 28.7501V7.25007C16.5 6.00743 15.4926 5.00007 14.25 5.00007H6.75Z" fill="#1B1F24"/>
<path d="M20.2565 22.748C20.2919 23.1515 20.4459 23.4814 20.7187 23.7377C21.0217 24.0225 21.3803 24.1578 21.7945 24.1435C22.2087 24.1293 22.5421 23.9655 22.7946 23.6523C23.4714 22.7789 24.0043 21.8248 24.3933 20.79C24.7822 19.7552 24.9766 18.654 24.9766 17.4863C24.9766 16.3186 24.7822 15.2078 24.3933 14.154C24.0043 13.1003 23.4714 12.1509 22.7946 11.306C22.5421 10.9927 22.2112 10.8289 21.8021 10.8147C21.393 10.8005 21.0369 10.9357 20.7338 11.2205C20.4409 11.4959 20.2843 11.8329 20.2641 12.2316C20.2439 12.6303 20.3601 13.0053 20.6126 13.3566C21.047 13.9452 21.3778 14.5884 21.6051 15.2861C21.8324 15.9839 21.9461 16.7173 21.9461 17.4863C21.9461 18.2552 21.8274 18.9886 21.59 19.6864C21.3526 20.3841 21.0167 21.0273 20.5823 21.6159C20.3297 21.9672 20.2211 22.3445 20.2565 22.748Z" fill="#1B1F24"/>
<path d="M25.4085 27.5826C25.4438 27.9908 25.5979 28.3231 25.8707 28.5794C26.1737 28.8642 26.5273 28.9995 26.9313 28.9852C27.3354 28.971 27.6738 28.8167 27.9466 28.5224C29.28 27.0225 30.3306 25.335 31.0984 23.46C31.8661 21.5851 32.25 19.5938 32.25 17.4863C32.25 15.3692 31.8661 13.3756 31.0984 11.5054C30.3306 9.63514 29.28 7.95006 27.9466 6.45011C27.6738 6.15579 27.3354 6.00151 26.9313 5.98727C26.5273 5.97303 26.1737 6.10831 25.8707 6.39312C25.5676 6.67792 25.4085 7.01731 25.3933 7.41128C25.3782 7.80528 25.507 8.16366 25.7797 8.48643C26.8707 9.73008 27.7168 11.109 28.3178 12.6232C28.9189 14.1374 29.2195 15.7584 29.2195 17.4863C29.2195 19.2141 28.9113 20.8351 28.2951 22.3493C27.6789 23.8635 26.8354 25.2424 25.7646 26.4861C25.4918 26.8088 25.3731 27.1744 25.4085 27.5826Z" fill="#1B1F24"/>
</svg>
